<svg width="23" height="22" fill="none" xmlns="http://www.w3.org/2000/svg"><path d="M6.532 13.13l-1.367 5.92a.916.916 0 001.403.97l4.994-3.33 4.994 3.33a.917.917 0 001.392-1.015l-1.678-5.87 4.16-3.745a.918.918 0 00-.54-1.596l-5.23-.416-2.262-5.009a.915.915 0 00-1.672 0L8.464 7.377l-5.23.416a.917.917 0 00-.567 1.57l3.865 3.768zm2.617-3.967a.915.915 0 00.763-.538l1.65-3.651 1.65 3.651a.916.916 0 00.763.538l3.644.289-3 2.7a.92.92 0 00-.27.934l1.15 4.022-3.427-2.285a.913.913 0 00-1.017 0l-3.581 2.388.963-4.17a.917.917 0 00-.253-.862L5.397 9.462l3.752-.3z" fill="#F3CD03"/></svg>